<mxfile>
    <diagram id="7XaOBb24xC2b2bNCTVzC" name="Page-1">
        <mxGraphModel dx="823" dy="427" grid="1" gridSize="10" guides="1" tooltips="1" connect="1" arrows="1" fold="1" page="0" pageScale="1" pageWidth="827" pageHeight="1169" math="0" shadow="0">
            <root>
                <mxCell id="0"/>
                <mxCell id="1" parent="0"/>
                <mxCell id="6" style="edgeStyle=orthogonalEdgeStyle;rounded=0;orthogonalLoop=1;jettySize=auto;html=1;" edge="1" parent="1" source="3">
                    <mxGeometry relative="1" as="geometry">
                        <mxPoint x="200" y="420" as="targetPoint"/>
                        <Array as="points">
                            <mxPoint x="200" y="400"/>
                        </Array>
                    </mxGeometry>
                </mxCell>
                <mxCell id="3" value="Local A" style="text;html=1;align=left;verticalAlign=middle;resizable=0;points=[];autosize=1;fontStyle=1" vertex="1" parent="1">
                    <mxGeometry x="170" y="80" width="60" height="20" as="geometry"/>
                </mxCell>
                <mxCell id="7" style="edgeStyle=orthogonalEdgeStyle;rounded=0;orthogonalLoop=1;jettySize=auto;html=1;" edge="1" parent="1" source="4">
                    <mxGeometry relative="1" as="geometry">
                        <mxPoint x="330" y="420" as="targetPoint"/>
                        <Array as="points">
                            <mxPoint x="330" y="402"/>
                        </Array>
                    </mxGeometry>
                </mxCell>
                <mxCell id="4" value="Local B" style="text;html=1;align=left;verticalAlign=middle;resizable=0;points=[];autosize=1;fontStyle=1" vertex="1" parent="1">
                    <mxGeometry x="300" y="80" width="60" height="20" as="geometry"/>
                </mxCell>
                <mxCell id="8" style="edgeStyle=orthogonalEdgeStyle;rounded=0;orthogonalLoop=1;jettySize=auto;html=1;" edge="1" parent="1" source="5">
                    <mxGeometry relative="1" as="geometry">
                        <mxPoint x="460" y="420" as="targetPoint"/>
                        <Array as="points">
                            <mxPoint x="460" y="180"/>
                            <mxPoint x="460" y="180"/>
                        </Array>
                    </mxGeometry>
                </mxCell>
                <mxCell id="5" value="Transaction interface" style="text;html=1;align=left;verticalAlign=middle;resizable=0;points=[];autosize=1;fontStyle=1;spacing=0;" vertex="1" parent="1">
                    <mxGeometry x="393" y="80" width="140" height="20" as="geometry"/>
                </mxCell>
                <mxCell id="9" value="&lt;i&gt;t&lt;/i&gt;" style="text;html=1;align=left;verticalAlign=middle;resizable=0;points=[];autosize=1;" vertex="1" parent="1">
                    <mxGeometry x="210" y="390" width="20" height="20" as="geometry"/>
                </mxCell>
                <mxCell id="10" value="&lt;i&gt;t&lt;/i&gt;" style="text;html=1;align=left;verticalAlign=middle;resizable=0;points=[];autosize=1;" vertex="1" parent="1">
                    <mxGeometry x="340" y="390" width="20" height="20" as="geometry"/>
                </mxCell>
                <mxCell id="11" value="&lt;i&gt;t&lt;/i&gt;" style="text;html=1;align=left;verticalAlign=middle;resizable=0;points=[];autosize=1;" vertex="1" parent="1">
                    <mxGeometry x="470" y="390" width="20" height="20" as="geometry"/>
                </mxCell>
                <mxCell id="16" style="rounded=0;orthogonalLoop=1;jettySize=auto;html=1;exitX=0.003;exitY=1.034;exitDx=0;exitDy=0;exitPerimeter=0;entryX=-0.02;entryY=0.87;entryDx=0;entryDy=0;entryPerimeter=0;" edge="1" parent="1" source="14" target="15">
                    <mxGeometry relative="1" as="geometry">
                        <mxPoint x="199" y="141" as="sourcePoint"/>
                        <mxPoint x="320" y="167" as="targetPoint"/>
                    </mxGeometry>
                </mxCell>
                <mxCell id="14" value="Import request" style="text;html=1;align=left;verticalAlign=middle;resizable=0;points=[];autosize=1;" vertex="1" parent="1">
                    <mxGeometry x="200" y="120" width="90" height="20" as="geometry"/>
                </mxCell>
                <mxCell id="17" style="edgeStyle=none;rounded=0;orthogonalLoop=1;jettySize=auto;html=1;" edge="1" parent="1" source="15">
                    <mxGeometry relative="1" as="geometry">
                        <mxPoint x="200" y="210" as="targetPoint"/>
                    </mxGeometry>
                </mxCell>
                <mxCell id="20" style="edgeStyle=none;rounded=0;orthogonalLoop=1;jettySize=auto;html=1;entryX=-0.007;entryY=0.558;entryDx=0;entryDy=0;entryPerimeter=0;fontSize=10;exitX=0;exitY=0.963;exitDx=0;exitDy=0;exitPerimeter=0;" edge="1" parent="1" source="15" target="19">
                    <mxGeometry relative="1" as="geometry"/>
                </mxCell>
                <mxCell id="15" value="Import OK" style="text;html=1;align=left;verticalAlign=middle;resizable=0;points=[];autosize=1;" vertex="1" parent="1">
                    <mxGeometry x="330" y="160" width="70" height="20" as="geometry"/>
                </mxCell>
                <mxCell id="18" value="Notify" style="text;html=1;align=left;verticalAlign=middle;resizable=0;points=[];autosize=1;rotation=-15;fontSize=10;" vertex="1" parent="1">
                    <mxGeometry x="240" y="180" width="40" height="20" as="geometry"/>
                </mxCell>
                <mxCell id="22" style="edgeStyle=orthogonalEdgeStyle;curved=1;rounded=0;orthogonalLoop=1;jettySize=auto;html=1;fontSize=10;exitX=-0.005;exitY=0.816;exitDx=0;exitDy=0;exitPerimeter=0;" edge="1" parent="1" source="19">
                    <mxGeometry relative="1" as="geometry">
                        <mxPoint x="459.44000000000005" y="220.00000000000006" as="sourcePoint"/>
                        <mxPoint x="460" y="250.12" as="targetPoint"/>
                        <Array as="points">
                            <mxPoint x="430" y="216"/>
                            <mxPoint x="430" y="250"/>
                        </Array>
                    </mxGeometry>
                </mxCell>
                <mxCell id="19" value="Trans. Open" style="text;html=1;align=left;verticalAlign=middle;resizable=0;points=[];autosize=1;" vertex="1" parent="1">
                    <mxGeometry x="460" y="200" width="80" height="20" as="geometry"/>
                </mxCell>
                <mxCell id="21" value="Trans. Start" style="text;html=1;align=left;verticalAlign=middle;resizable=0;points=[];autosize=1;" vertex="1" parent="1">
                    <mxGeometry x="460" y="240" width="80" height="20" as="geometry"/>
                </mxCell>
                <mxCell id="28" style="rounded=0;orthogonalLoop=1;jettySize=auto;html=1;entryX=0.008;entryY=-0.029;entryDx=0;entryDy=0;entryPerimeter=0;fontSize=8;" edge="1" parent="1" source="23" target="27">
                    <mxGeometry relative="1" as="geometry"/>
                </mxCell>
                <mxCell id="23" value="Trans. End" style="text;html=1;align=left;verticalAlign=middle;resizable=0;points=[];autosize=1;" vertex="1" parent="1">
                    <mxGeometry x="460" y="280" width="70" height="20" as="geometry"/>
                </mxCell>
                <mxCell id="24" style="edgeStyle=orthogonalEdgeStyle;curved=1;rounded=0;orthogonalLoop=1;jettySize=auto;html=1;fontSize=10;exitX=0.001;exitY=0.792;exitDx=0;exitDy=0;exitPerimeter=0;dashed=1;" edge="1" parent="1" source="21">
                    <mxGeometry relative="1" as="geometry">
                        <mxPoint x="456.88" y="249.99999999999997" as="sourcePoint"/>
                        <mxPoint x="460" y="286.28" as="targetPoint"/>
                        <Array as="points">
                            <mxPoint x="430" y="256"/>
                            <mxPoint x="430" y="286"/>
                        </Array>
                    </mxGeometry>
                </mxCell>
                <mxCell id="26" value="Physical&lt;br&gt;transfer" style="text;html=1;align=left;verticalAlign=middle;resizable=0;points=[];autosize=1;rotation=0;fontSize=8;" vertex="1" parent="1">
                    <mxGeometry x="393" y="257" width="50" height="30" as="geometry"/>
                </mxCell>
                <mxCell id="33" style="edgeStyle=none;rounded=0;orthogonalLoop=1;jettySize=auto;html=1;entryX=-0.016;entryY=0.562;entryDx=0;entryDy=0;entryPerimeter=0;fontSize=11;exitX=0.001;exitY=1.002;exitDx=0;exitDy=0;exitPerimeter=0;" edge="1" parent="1" source="27" target="32">
                    <mxGeometry relative="1" as="geometry">
                        <mxPoint x="201" y="340" as="sourcePoint"/>
                    </mxGeometry>
                </mxCell>
                <mxCell id="27" value="Rec. confirmation" style="text;html=1;align=left;verticalAlign=middle;resizable=0;points=[];autosize=1;" vertex="1" parent="1">
                    <mxGeometry x="200" y="320" width="110" height="20" as="geometry"/>
                </mxCell>
                <mxCell id="32" value="Trans. Closes" style="text;html=1;align=left;verticalAlign=middle;resizable=0;points=[];autosize=1;" vertex="1" parent="1">
                    <mxGeometry x="460" y="360" width="90" height="20" as="geometry"/>
                </mxCell>
                <mxCell id="34" value="" style="shape=curlyBracket;whiteSpace=wrap;html=1;rounded=1;fontSize=11;align=left;rotation=-180;" vertex="1" parent="1">
                    <mxGeometry x="533" y="200" width="13" height="60" as="geometry"/>
                </mxCell>
                <mxCell id="35" value="A" style="text;html=1;align=left;verticalAlign=middle;resizable=0;points=[];autosize=1;" vertex="1" parent="1">
                    <mxGeometry x="550" y="220" width="20" height="20" as="geometry"/>
                </mxCell>
                <mxCell id="36" value="" style="shape=curlyBracket;whiteSpace=wrap;html=1;rounded=1;fontSize=11;align=left;rotation=-180;" vertex="1" parent="1">
                    <mxGeometry x="541.5" y="280" width="13" height="100" as="geometry"/>
                </mxCell>
                <mxCell id="37" value="B" style="text;html=1;align=left;verticalAlign=middle;resizable=0;points=[];autosize=1;" vertex="1" parent="1">
                    <mxGeometry x="558.5" y="320" width="20" height="20" as="geometry"/>
                </mxCell>
            </root>
        </mxGraphModel>
    </diagram>
</mxfile>